<svg xmlns="http://www.w3.org/2000/svg" viewBox="0 0 97 17" fill="currentColor" width="97"  height="17" ><path d="M8.59385965,0.0850877193 C10.9479532,0.0850877193 13.6707602,1.58830409 15.0888889,3.60204678 L15.0888889,3.60204678 L12.3377193,5.64415205 C11.430117,4.05584795 9.95526316,3.48859649 8.42368421,3.48859649 C5.44561404,3.48859649 3.3751462,5.55906433 3.3751462,8.56549708 C3.3751462,11.6002924 5.44561404,13.6707602 8.50877193,13.6707602 C10.1821637,13.6707602 11.8839181,12.8766082 12.5362573,11.2883041 L12.5362573,11.2883041 L16.2233918,11.2883041 C15.2023392,15.0321637 12.1675439,17.0175439 8.59385965,17.0175439 C3.48859649,17.0175439 2.18491891e-13,13.4722222 2.18491891e-13,8.59385965 C2.18491891e-13,3.71549708 3.46023392,0.113450292 8.59385965,0.0850877193 Z M91.3842105,-3.55271368e-15 C93.9935673,-3.55271368e-15 96.3760234,1.24795322 97,4.25438596 L97,4.25438596 L93.9935673,5.55906433 C93.6532164,4.08421053 92.7739766,3.3751462 91.3274854,3.3751462 C90.022807,3.3751462 89.2853801,3.97076023 89.2853801,4.90672515 C89.2853801,6.15467836 90.6184211,6.49502924 92.2918129,7.00555556 C94.4190058,7.68625731 96.8298246,8.82076023 96.8581871,12.0540936 C96.8581871,15.1172515 94.5324561,16.9040936 91.4125731,16.9040936 L91.4125731,16.9040936 L91.1565546,16.8999588 C88.4454156,16.8118175 86.3743488,15.3166489 85.7967836,12.621345 L85.7967836,12.621345 L88.8599415,11.4017544 C89.2002924,12.9333333 90.1078947,13.5289474 91.4409357,13.5289474 C92.8023392,13.5289474 93.4830409,12.8766082 93.4830409,12.025731 C93.4830409,10.8061404 92.1783626,10.4657895 90.3915205,9.89853801 C88.094152,9.16111111 85.9385965,8.05497076 85.9385965,4.90672515 C85.9385965,1.73011696 88.2926901,-3.55271368e-15 91.3842105,-3.55271368e-15 Z M49.4359649,0.340350877 L49.4359649,3.63040936 L42.0900585,3.63040936 L42.0900585,6.92046784 L49.4359649,6.92046784 L49.4359649,10.2105263 L42.0900585,10.2105263 L42.0900585,13.5005848 L49.4359649,13.5005848 L49.4359649,16.7906433 L38.8,16.7906433 L38.8,0.340350877 L49.4359649,0.340350877 Z M83.1874269,0.340350877 L83.1874269,3.63040936 L78.1105263,3.63040936 L78.1105263,16.7906433 L74.8204678,16.7906433 L74.8204678,3.63040936 L69.7435673,3.63040936 L69.7435673,0.340350877 L83.1874269,0.340350877 Z M62.8798246,0.311988304 L69.7719298,16.7906433 L66.3116959,16.7906433 L64.9219298,13.5005848 L57.604386,13.5005848 L56.1862573,16.7906433 L52.8111111,16.7906433 L59.7315789,0.311988304 L62.8798246,0.311988304 Z M27.8520468,0.340350877 C31.0002924,0.340350877 33.3260234,2.72280702 33.3260234,5.81432749 C33.3260234,8.19678363 31.9078947,10.1821637 29.8090643,10.9479532 L29.8090643,10.9479532 L30.0076023,11.2883041 L33.6947368,16.7906433 L29.695614,16.7906433 L26.2070175,11.2883041 L24.1081871,11.2883041 L24.1081871,16.7906433 L20.8181287,16.7906433 L20.8181287,0.340350877 Z M61.2915205,4.85 L59.0225146,10.2105263 L63.5321637,10.2105263 L61.2915205,4.85 Z M14.5783626,6.92046784 L16.280117,10.2105263 L9.07602339,10.2105263 L10.2388889,8.56549708 L9.07602339,6.92046784 L14.5783626,6.92046784 Z M27.8236842,3.63040936 L24.1081871,3.63040936 L24.1081871,7.99824561 L27.8236842,7.99824561 L27.9981792,7.99268126 C29.2550559,7.91154943 30.0076023,6.95376303 30.0076023,5.81432749 C30.0076023,4.62309942 29.1850877,3.63040936 27.8236842,3.63040936 L27.8236842,3.63040936 Z" fill="#141415"></path> </svg>